# xmcd CD database file
#
# Track frame offsets:
#	150
#	3877
#	38842
#	68090
#	79887
#	122585
#	163747
#	199167
#	222242
#	247120
#	269207
#	286402
#
# Disc length: 4170 seconds
#
# Revision: 0
# Processed by: cddbd v1.4PL0 Copyright (c) Steve Scherf et al.
# Submitted via: CDex 1.50Beta7
#
DISCID=b210480c
DTITLE=Oscar Peterson - The London House Sessions (Disk 4)
DYEAR=1961
DGENRE=Jazz
TTITLE0=Introduction
TTITLE1=An Green Dolphin Street
TTITLE2=Moanin'
TTITLE3=Billy Boy
TTITLE4=Scapple From The Apple
TTITLE5=Jim
TTITLE6=Band Call
TTITLE7=The Night We Called It a Day
TTITLE8=The Lonesome One
TTITLE9=The Gravy Waltz
TTITLE10=Woody 'n' You
TTITLE11=Daahoud
EXTD=YEAR: 1961
EXTT0=
EXTT1=
EXTT2=
EXTT3=
EXTT4=
EXTT5=
EXTT6=
EXTT7=
EXTT8=
EXTT9=
EXTT10=
EXTT11=
PLAYORDER=
